<svg width="408" height="184" viewBox="0 0 408 184" fill="none" xmlns="http://www.w3.org/2000/svg">
<path d="M209.586 116.562V140.938C209.586 142.021 209.181 142.969 208.371 143.781C207.56 144.594 206.615 145 205.534 145H181.224C180.144 145 179.198 144.594 178.388 143.781C177.578 142.969 177.172 142.021 177.172 140.938V116.562C177.172 115.479 177.578 114.531 178.388 113.719C179.198 112.906 180.144 112.5 181.224 112.5H205.534C206.615 112.5 207.56 112.906 208.371 113.719C209.181 114.531 209.586 115.479 209.586 116.562ZM241.595 55.625C241.595 59.2812 241.071 62.7005 240.025 65.8828C238.978 69.0651 237.796 71.6549 236.48 73.6523C235.163 75.6497 233.306 77.6641 230.908 79.6953C228.511 81.7266 226.57 83.1992 225.084 84.1133C223.598 85.0273 221.539 86.2292 218.905 87.7188C216.136 89.276 213.824 91.4766 211.967 94.3203C210.11 97.1641 209.181 99.4323 209.181 101.125C209.181 102.276 208.776 103.376 207.966 104.426C207.155 105.475 206.21 106 205.129 106H180.819C179.806 106 178.945 105.374 178.236 104.121C177.527 102.868 177.172 101.599 177.172 100.312V95.7422C177.172 90.1224 179.367 84.8242 183.756 79.8477C188.146 74.8711 192.974 71.1979 198.241 68.8281C202.226 67 205.062 65.1042 206.75 63.1406C208.438 61.1771 209.282 58.6042 209.282 55.4219C209.282 52.5781 207.712 50.0729 204.572 47.9062C201.432 45.7396 197.802 44.6562 193.683 44.6562C189.294 44.6562 185.647 45.638 182.744 47.6016C180.38 49.2943 176.767 53.1875 171.905 59.2812C171.027 60.3646 169.981 60.9062 168.765 60.9062C167.955 60.9062 167.111 60.6354 166.233 60.0937L149.621 47.3984C148.743 46.7214 148.219 45.875 148.051 44.8594C147.882 43.8437 148.068 42.8958 148.608 42.0156C159.412 24.0052 175.079 15 195.608 15C201.01 15 206.446 16.0495 211.916 18.1484C217.386 20.2474 222.315 23.0573 226.705 26.5781C231.094 30.099 234.673 34.4154 237.442 39.5273C240.21 44.6393 241.595 50.0052 241.595 55.625Z" fill="#F76969"/>
<path fill-rule="evenodd" clip-rule="evenodd" d="M47.8215 41.1004C52.0391 51.2228 59.2085 58.2559 63.0058 68.7811C65.2575 75.0228 66.1961 81.8094 66.253 88.7601C66.284 92.5354 66.2189 96.3132 66.2014 100.089C66.1844 103.77 66.0853 107.428 65.7759 111.087C65.465 114.764 65.1169 118.398 64.9633 122.098C64.8438 124.981 64.7892 128.335 63.8217 130.964C63.0522 133.056 61.0966 133.362 60.5777 130.826C60.2894 129.416 60.3257 127.841 60.3575 126.392C60.3983 124.533 60.5054 122.676 60.56 120.818C60.7794 113.358 60.4949 105.897 60.6436 98.4343C60.7889 91.1431 61.7168 83.8598 60.6901 76.6173C59.8423 70.6364 57.6884 65.5005 55.2132 60.5769C52.8317 55.8398 50.2397 51.2179 48.6304 45.8296C48.1683 44.2821 47.811 42.6785 47.6396 41.0145C47.7146 40.9794 47.7752 41.008 47.8215 41.1004Z" fill="#C1DEE2"/>
<path fill-rule="evenodd" clip-rule="evenodd" d="M46.6721 61.0706C47.5072 61.6797 47.9739 62.5707 48.5384 63.4499C49.2403 64.5429 50.0656 65.5297 50.7674 66.6235C52.2307 68.9039 53.5164 71.3244 54.8503 73.6972C57.3829 78.201 59.3057 83.0012 60.258 88.2117C61.2452 93.6115 61.5114 99.185 61.9254 104.665C62.3646 110.474 62.8069 116.325 62.865 122.156C62.8911 124.768 63.0309 127.541 62.7204 130.135C62.5271 131.75 61.8055 133.126 60.1789 133.113C56.7236 133.086 55.1014 129.22 54.4237 126.05C53.4261 121.382 53.2271 116.424 53.385 111.65C53.5758 105.893 54.5649 100.223 54.993 94.4893C55.4464 88.419 55.1903 82.456 53.124 76.7404C52.0801 73.8521 50.8686 71.033 49.7808 68.1638C49.3175 66.9422 48.9381 65.6874 48.3124 64.5499C47.6163 63.2845 46.7523 62.1359 46.2072 60.7731C46.3621 60.8724 46.5172 60.9715 46.6721 61.0706Z" fill="#89C5CC"/>
<path fill-rule="evenodd" clip-rule="evenodd" d="M86.4749 48.966C86.5808 48.8828 86.6869 48.7997 86.7928 48.7163C86.4877 50.0149 85.9365 51.0697 85.5151 52.2568C85.1364 53.324 84.9444 54.5316 84.6893 55.6981C84.0903 58.4378 83.3981 61.1157 82.8324 63.8787C81.7124 69.3462 81.9242 75.2364 82.6587 81.3024C83.3524 87.0324 84.4496 92.7536 84.9723 98.4825C85.4057 103.234 85.5919 108.133 85.1786 112.666C84.8977 115.744 83.9769 119.42 81.468 119.109C80.2869 118.963 79.6708 117.527 79.4225 115.906C79.0238 113.303 78.9403 110.565 78.7849 107.976C78.4381 102.198 78.369 96.4373 78.3005 90.7184C78.2356 85.3225 78.0571 79.8197 78.4141 74.5598C78.7584 69.4843 79.8352 64.9108 81.3749 60.6909C82.1858 58.4677 82.9585 56.1925 83.8696 54.0736C84.3066 53.0572 84.8404 52.1591 85.2775 51.1436C85.629 50.3267 85.9087 49.4885 86.4749 48.966Z" fill="#C1DEE2"/>
<path fill-rule="evenodd" clip-rule="evenodd" d="M47.7393 77.798C48.1962 77.0233 49.202 79.5784 49.355 79.8997C49.2903 79.7399 49.2253 79.5803 49.1597 79.4208C50.0667 80.9439 50.8963 82.5295 51.4122 84.276C51.9226 86.005 52.3611 87.7688 52.84 89.51C53.7387 92.7769 54.8981 95.9511 55.7123 99.2475C56.5057 102.46 56.7058 105.617 56.5137 108.94C56.3141 112.393 56.192 115.899 56.4248 119.351C56.5361 120.999 57.0663 122.534 57.4298 124.121C57.7937 125.71 58.0803 127.319 58.5105 128.888C58.6093 128.684 58.6218 129.367 58.6216 129.419C58.6189 129.811 58.5647 130.139 58.4399 130.511C58.1191 131.467 57.5189 132.279 56.6057 132.542C54.9553 133.019 53.423 131.502 52.8907 129.901C52.1272 127.604 51.7065 125.065 51.3427 122.65C51.0091 120.436 50.9301 118.209 51.0293 115.964C51.2245 111.537 52.0176 107.168 52.2322 102.743C52.4657 97.925 51.5206 93.3982 50.7293 88.7084C50.3482 86.4487 49.9839 84.2103 49.2422 82.0574C48.9419 81.1856 48.5504 80.4162 48.1398 79.6112C47.9063 79.1532 47.4339 78.3362 47.7393 77.798Z" fill="#C1DEE2"/>
<path fill-rule="evenodd" clip-rule="evenodd" d="M61.1294 70.2723C60.9401 75.7918 60.6137 81.2694 59.8851 86.7307C59.1416 92.304 58.2875 97.8581 57.5721 103.436C56.8757 108.866 56.1457 114.386 56.243 119.892C56.3147 123.947 55.6489 130.808 60.1082 132.809C64.6245 134.836 65.5933 126.18 65.8898 123.323C66.4581 117.841 66.2742 112.302 65.9984 106.791C65.7152 101.134 65.2425 95.5061 64.6567 89.8701C64.0061 83.6099 63.4955 77.3214 63.0858 71.0434C62.8831 67.9381 62.8331 64.8379 62.889 61.7319C62.9419 58.8009 62.8317 55.8396 61.7999 53.0567C61.7459 53.0963 61.6922 53.1359 61.6381 53.1753" fill="#69A1AC"/>
<path fill-rule="evenodd" clip-rule="evenodd" d="M84.4449 87.7586C83.6327 88.9537 82.8139 90.1371 82.0469 91.403C80.6745 93.668 79.4334 96.1869 79.06 99.4254C78.2787 106.203 78.9055 113.523 79.0568 120.508C79.0878 121.936 78.909 123.32 79.466 124.678C79.9711 125.91 80.9153 126.849 81.8153 126.844C83.7421 126.833 83.4481 122.067 83.4513 119.97C83.4571 116.293 83.049 112.579 83.0841 108.906C83.1192 105.267 83.3383 101.618 83.8606 98.1624C84.3894 94.6643 85.1639 91.3053 86.186 88.1706C86.3278 87.7356 87.3457 84.3741 86.384 84.9534" fill="#89C5CC"/>
<path fill-rule="evenodd" clip-rule="evenodd" d="M75.936 51.6099C74.6692 51.6099 74.677 57.9884 74.6389 58.8077C74.5013 61.7643 74.5336 64.7217 74.4465 67.6789C74.256 74.1323 74.0219 80.6423 73.0622 87.0212C72.5455 90.4552 71.9464 93.8739 71.302 97.2818C70.6558 100.7 69.7884 104.113 69.3632 107.574C68.9551 110.901 69.1857 114.294 69.2417 117.638C69.2977 121.001 69.3983 124.372 69.8346 127.706C69.9422 128.529 70.0685 129.349 70.2036 130.167C70.3161 130.849 70.2505 131.694 70.4409 132.342C70.7461 133.38 72.0544 133.719 72.9354 133.557C75.3192 133.118 76.8419 130.094 77.6563 127.885C78.6962 125.065 79.248 122.006 79.7925 119.033C80.4094 115.666 80.771 112.247 80.9406 108.818C81.2854 101.85 80.8429 94.8751 80.3487 87.9297C80.0739 84.067 79.7564 80.2213 79.2705 76.3825C78.7867 72.5602 78.1659 68.7548 77.7617 64.9212C77.4681 62.1353 77.1788 59.3456 76.9886 56.549C76.9431 55.8822 76.9048 51.6099 75.936 51.6099Z" fill="#69A1AC"/>
<path fill-rule="evenodd" clip-rule="evenodd" d="M74.3501 97.9747C74.1436 91.2779 71.4784 61.8625 70.8721 53.7643C70.7204 51.7373 69.2606 43.2978 69.0712 41C68.5577 41.6495 68.6016 51.7592 68.6072 54.0821C68.6132 56.38 68.3311 58.6397 68.1859 60.9252C68.038 63.2572 64.6246 93.3749 64.1816 95.6157C63.3004 100.074 62.7106 104.648 62.2557 109.206C61.8126 113.649 61.1237 118.336 61.7166 122.802C61.8529 123.83 62.0686 124.841 62.4198 125.786C62.7992 126.806 63.0592 127.75 63.3638 128.818C63.8539 130.538 64.7404 132.047 66.1027 132.757C68.8957 134.213 70.3954 130.918 71.1556 128.048C72.3698 123.466 73.1491 118.808 73.5145 113.996C73.9188 108.671 74.5155 103.336 74.3501 97.9747Z" fill="#89C5CC"/>
<path d="M87.2703 117.681H45.7297C45.2023 117.681 44.7748 118.113 44.7748 118.645V160.603C44.7748 161.136 45.2023 161.567 45.7297 161.567H87.2703C87.7977 161.567 88.2252 161.136 88.2252 160.603V118.645C88.2252 118.113 87.7977 117.681 87.2703 117.681Z" fill="white"/>
<path d="M43.8198 122.504H40.955C40.4275 122.504 40 122.935 40 123.468V176.035C40 176.568 40.4275 177 40.955 177H43.8198C44.3472 177 44.7748 176.568 44.7748 176.035V123.468C44.7748 122.935 44.3472 122.504 43.8198 122.504Z" fill="#C5CFD6"/>
<path d="M67.6937 122.504H64.8288C64.3014 122.504 63.8739 122.935 63.8739 123.468V176.035C63.8739 176.568 64.3014 177 64.8288 177H67.6937C68.2211 177 68.6487 176.568 68.6487 176.035V123.468C68.6487 122.935 68.2211 122.504 67.6937 122.504Z" fill="#C5CFD6"/>
<path d="M92.045 122.504H89.1802C88.6528 122.504 88.2252 122.935 88.2252 123.468V176.035C88.2252 176.568 88.6528 177 89.1802 177H92.045C92.5725 177 93 176.568 93 176.035V123.468C93 122.935 92.5725 122.504 92.045 122.504Z" fill="#C5CFD6"/>
<path fill-rule="evenodd" clip-rule="evenodd" d="M39.3738 21.058C38.0611 18.2971 37.5032 15.1953 38.5468 12.1667C41.5538 3.44043 53.4095 8.71407 54.615 13.848C55.8204 18.9819 52.4834 30.291 49.1561 30.2593C47.8292 30.2467 45.3951 28.7545 43.1386 26.4114L41.6258 38.814L31.6521 36.1416L39.3738 21.058Z" fill="#D4A181"/>
<path fill-rule="evenodd" clip-rule="evenodd" d="M42.9932 21.3576C41.1204 23.4002 38.9308 24.7296 37.2219 24.2717C33.976 23.402 32.8308 18.4439 34.0811 13.778C34.125 13.614 34.1719 13.4521 34.2216 13.2922C30.1567 14.7283 26.266 18.6637 21.7228 17.4463C15.5417 15.7901 16.4276 2.66523 25.0633 4.97917C30.9363 6.55283 33.5957 8.18318 35.7461 10.1165C36.608 8.86377 37.6687 7.90052 38.802 7.33308C39.0887 7.14415 39.49 6.9974 39.9846 6.89421C40.2899 6.81986 40.5974 6.77503 40.9046 6.76161C42.5539 6.61216 44.8329 6.80571 47.285 7.3718C47.7428 7.47751 48.1896 7.59225 48.6226 7.71454C49.2431 5.42733 51.5976 4.07165 53.8883 4.68546C56.1835 5.30044 57.5455 7.65956 56.9305 9.9547C56.3358 12.1743 54.1098 13.5212 51.888 13.0512C50.5314 13.1021 48.8454 12.9546 47.0279 12.5959C47.0266 13.2942 46.9223 14.06 46.6981 14.8969C46.5001 15.6359 46.2086 16.3977 45.8452 17.1532C45.5813 16.5892 45.144 16.1501 44.6184 16.0093C43.1483 15.6153 41.8009 16.5505 41.4569 17.8346C41.0202 19.4642 41.6451 20.8953 42.9932 21.3576Z" fill="#191847"/>
<path fill-rule="evenodd" clip-rule="evenodd" d="M18.9302 74.1747L34.6899 128.481L42.1025 169.256H49.5425L42.1157 74.1747H18.9302Z" fill="#BA8B72"/>
<path fill-rule="evenodd" clip-rule="evenodd" d="M11.8476 74.1747C12.9473 102.387 12.5136 117.774 12.2674 120.338C12.0213 122.901 10.6241 140.067 1.10298 170.116H8.84124C21.4504 141.289 25.8521 124.123 27.2983 120.338C28.7445 116.552 33.0157 101.165 39.2515 74.1747H11.8476Z" fill="#D4A181"/>
<path fill-rule="evenodd" clip-rule="evenodd" d="M18.5919 74.1747C22.6912 92.8618 29.7813 122.691 39.8622 163.663H50.7441C51.5478 121.609 48.1287 93.9311 42.2077 74.1747H18.5919Z" fill="#69A1AC"/>
<path fill-rule="evenodd" clip-rule="evenodd" d="M11.7926 74.1747C12.8696 102.387 10.0785 130.181 1.43289 164.102H13.0432C25.6756 135.705 34.7296 108.048 40.9174 74.1747H11.7926Z" fill="#89C5CC"/>
<path fill-rule="evenodd" clip-rule="evenodd" d="M0 175.709L0.426971 168.826C2.92683 169.557 6.05795 169.27 9.82034 167.965C13.8658 170.831 18.9585 172.787 25.0985 173.835C25.567 173.915 25.8819 174.36 25.802 174.828C25.7968 174.859 25.79 174.889 25.7816 174.918L25.1913 177H0.853943L0 175.709Z" fill="#191847"/>
<path fill-rule="evenodd" clip-rule="evenodd" d="M40.4417 175.709L40.8687 168.826C43.3686 169.557 46.4997 169.27 50.2621 167.965C54.3075 170.831 59.4003 172.787 65.5402 173.835C66.0087 173.915 66.3236 174.36 66.2437 174.828C66.2385 174.859 66.2317 174.889 66.2233 174.918L65.633 177H41.2957L40.4417 175.709Z" fill="#191847"/>
<path fill-rule="evenodd" clip-rule="evenodd" d="M49.7138 49.9886L65.8404 44.5271C68.7981 42.0542 71.6053 40.2236 74.2622 39.0354C75.0409 38.8604 76.3416 38.9008 74.7842 40.797C73.2268 42.6931 71.674 44.7576 72.1639 45.5127C72.6539 46.2679 74.3205 45.6275 74.8514 46.8323C75.2053 47.6354 72.4308 48.3164 66.528 48.8752L54.1168 56.7752L49.7138 49.9886ZM71.5484 60.8458L78.634 58.4362C80.1486 55.147 81.538 53.6027 82.8025 53.8034C83.8503 53.5236 81.3954 57.5843 83.2978 57.5301C85.2002 57.4759 90.2685 54.9335 90.9212 55.7463C91.8869 56.9486 90.3265 59.8427 88.8569 61.1601C86.1103 63.6222 84.0811 64.272 79.2659 64.7425C76.7483 64.9884 73.9174 65.8721 70.7732 67.3934L71.5484 60.8458Z" fill="#D4A181"/>
<path fill-rule="evenodd" clip-rule="evenodd" d="M42.8681 46.9315C48.0288 47.7853 55.0896 47.9086 63.2393 44.5486L64.9858 51.4751C59.0456 55.6009 51.2101 58.4697 45.0252 57.1992C40.1512 56.1979 38.6925 49.8316 42.8681 46.9315Z" fill="#2026A2"/>
<path fill-rule="evenodd" clip-rule="evenodd" d="M47.9889 58.4485C53.217 60.7766 62.671 60.7852 76.3509 58.4745C78.3791 65.6429 79.0247 70.6124 78.2878 73.3828C66.2282 77.2039 56.3103 78.1068 48.483 76.9017C47.915 81.5721 46.5756 85.8751 43.9745 89.5642C38.6271 97.1482 17.2041 85.4739 9.28115 85.6312C7.23193 69.2129 17.6194 64.519 19.3838 54.5559C21.3161 43.6453 33.0395 28.3941 34.3287 28.6214L46.0848 30.6943C45.264 39.1424 46.9094 48.9025 47.9889 58.4485Z" fill="#1F28CF"/>
<path fill-rule="evenodd" clip-rule="evenodd" d="M363.611 39.4354C365.852 36.7714 367.369 33.5066 367.115 29.8484C366.385 19.3078 351.895 21.6266 349.077 26.9466C346.258 32.2665 346.593 45.761 350.236 46.7118C351.688 47.091 354.783 46.1622 357.933 44.2397L355.956 58.403H367.629L363.611 39.4354Z" fill="#915B3C"/>
<path fill-rule="evenodd" clip-rule="evenodd" d="M364.508 41.8082C365.973 35.2077 370.147 30.7083 369.509 27.7582C369.084 25.7914 367.951 24.5683 366.111 24.089C365.159 20.1897 362.089 18.5312 356.902 19.1135C349.12 19.9868 344.37 23.2593 346.421 30.4603C348.307 30.4603 350.583 29.7698 353.73 30.9528C354.729 31.3282 355.443 32.4923 355.873 34.445H357.295C358.676 32.1276 360.037 31.2761 361.379 31.8903C362.72 32.5045 363.025 33.9965 362.294 36.3662L362.994 41.8082H364.508Z" fill="#191847"/>
<path fill-rule="evenodd" clip-rule="evenodd" d="M400.218 119.97H344.282C339.984 119.97 336.5 123.498 336.5 127.851V173.164C336.5 177.517 339.984 181.045 344.282 181.045H400.218C404.516 181.045 408 177.517 408 173.164V127.851C408 123.498 404.516 119.97 400.218 119.97ZM392.435 133.761C393.51 133.761 394.381 134.643 394.381 135.731V165.284C394.381 166.372 393.51 167.254 392.435 167.254H352.065C350.99 167.254 350.119 166.372 350.119 165.284V135.731C350.119 134.643 350.99 133.761 352.065 133.761H392.435Z" fill="#C5CFD6"/>
<path fill-rule="evenodd" clip-rule="evenodd" d="M288.27 178.582C297.859 166.724 304.348 157.933 307.735 152.209C313.536 142.408 318.283 133.686 319.781 130.355C323.354 122.411 311.557 118.691 308.887 122.396C304.846 128.005 296.216 145.653 282.997 175.34L288.27 178.582Z" fill="#B28B67"/>
<path fill-rule="evenodd" clip-rule="evenodd" d="M307.921 175.134L325.768 129.642C329.585 121.349 311.151 115.898 308.346 119.757C301.977 128.519 286.84 163.084 284.942 165.694L307.921 175.134Z" fill="#2F3676"/>
<path fill-rule="evenodd" clip-rule="evenodd" d="M355.453 166.011C351.977 160.876 339.332 143.599 332.444 136.451C330.465 134.397 328.534 132.425 326.707 130.588C321.278 125.127 310.466 134.306 315.886 139.28C329.381 151.667 349.073 168.39 350.718 169.881C353.024 171.971 357.638 169.238 355.453 166.011Z" fill="#915B3C"/>
<path fill-rule="evenodd" clip-rule="evenodd" d="M354.64 163.691C355.838 164.69 356.617 165.505 356.977 166.138C357.416 166.907 357.929 168.103 358.518 169.727C357.637 170.242 349.717 174.872 334.76 183.617C332.964 181.911 332.684 180.587 333.92 179.644C335.156 178.702 336.177 177.907 336.981 177.26L345.181 165.819C345.339 165.599 345.643 165.55 345.86 165.71C345.864 165.712 345.868 165.715 345.871 165.718L347.575 167.046C349.138 166.908 350.305 166.614 351.075 166.164C351.7 165.798 352.418 165.038 353.229 163.882C353.54 163.438 354.147 163.334 354.585 163.649C354.604 163.662 354.622 163.676 354.64 163.691Z" fill="#E4E4E4"/>
<path fill-rule="evenodd" clip-rule="evenodd" d="M292.395 176.81C292.939 178.281 293.211 179.381 293.211 180.112C293.211 181 293.065 182.296 292.773 184C291.755 184 282.611 184 265.339 184C264.626 181.613 265.038 180.325 266.574 180.135C268.11 179.944 269.385 179.773 270.401 179.619L283.152 173.863C283.398 173.752 283.685 173.864 283.795 174.112C283.796 174.117 283.798 174.121 283.8 174.125L284.62 176.138C286.041 176.81 287.197 177.146 288.086 177.146C288.808 177.146 289.806 176.851 291.078 176.26C291.567 176.033 292.144 176.25 292.368 176.745C292.378 176.766 292.387 176.788 292.395 176.81Z" fill="#E4E4E4"/>
<path fill-rule="evenodd" clip-rule="evenodd" d="M332.19 131.914C347.023 129.467 356.959 127.794 361.997 126.894C376.356 124.33 380.544 116.505 378.068 99.4324H351.61C348.109 100.456 333.479 106.789 307.721 118.429C303.087 120.759 303.95 127.628 304.797 129.891C304.832 129.983 312.644 143.54 328.235 170.56L349.879 156.598L332.149 133.559C331.681 132.604 331.694 132.056 332.19 131.914Z" fill="#5C63AB"/>
<path fill-rule="evenodd" clip-rule="evenodd" d="M330.283 92.9848L314.768 104.522C310.56 105.672 307.044 107.102 304.221 108.813C303.554 109.429 302.748 110.675 305.514 110.46C308.28 110.244 311.199 110.144 311.58 111.099C311.962 112.054 310.288 113.197 311.06 114.486C311.574 115.345 314.004 113.19 318.349 108.022L333.713 101.57L330.283 92.9848ZM389.854 93.3829L379.689 93.4234C385.965 113.939 389.353 124.825 389.854 126.08C390.979 128.905 388.597 133.206 387.579 135.518C390.896 137.021 390.543 131.455 394.727 133.426C398.547 135.225 401.452 138.486 405.865 135.729C406.408 135.39 407.002 134.113 405.566 133.116C401.987 130.631 396.83 126.282 396.133 124.85C395.183 122.898 393.09 112.409 389.854 93.3829Z" fill="#915B3C"/>
<path fill-rule="evenodd" clip-rule="evenodd" d="M360.968 50.1934L356.762 49.4629C341.157 63.1137 334.747 89.3387 315.619 103.231L320.223 109.01C353.407 104.849 361.632 72.8613 360.968 50.1934Z" fill="#E87613"/>
<path fill-rule="evenodd" clip-rule="evenodd" d="M379.303 103.716C362.439 103.716 350.034 103.716 342.088 103.716C340.387 103.716 340.708 101.23 340.954 99.9752C343.791 85.4944 354.866 69.8848 354.866 49.2717L365.6 47.5672C374.479 62.0273 377.549 79.8306 379.303 103.716Z" fill="#DDE3E9"/>
<path fill-rule="evenodd" clip-rule="evenodd" d="M379.004 61.7808C380.563 61.327 381.797 60.2686 382.707 58.6055C386.631 51.4366 385.214 47.4895 381.021 46.1921C376.828 44.8947 373.089 47.5672 366.408 47.5672C366.045 47.5672 365.712 47.5902 365.41 47.6364L362.05 47.8305C352.408 80.9194 349.749 102.996 354.072 114.06H383.363C385.099 118.158 386.759 121.605 388.345 124.403H396.327C397.078 99.8092 391.303 78.9351 379.004 61.7808Z" fill="#FF9B21"/>
<path fill-rule="evenodd" clip-rule="evenodd" d="M376.985 97.066C376.064 104.871 374.566 110.536 372.493 114.06H383.363C381.339 109.28 379.213 103.615 376.985 97.066Z" fill="black" fill-opacity="0.1"/>
<path d="M389.667 25.3333C394.695 25.3333 397.209 25.3333 398.771 23.7707C400.333 22.2093 400.333 19.6947 400.333 14.6667C400.333 9.63867 400.333 7.124 398.771 5.56267C397.209 4 394.695 4 389.667 4H384.333C379.305 4 376.791 4 375.229 5.56267C373.667 7.124 373.667 9.63867 373.667 14.6667C373.667 19.6947 373.667 22.2093 375.229 23.7707C376.1 24.6427 377.267 25.028 379 25.1973" stroke="#F77A69" stroke-width="2.66667" stroke-linecap="round" stroke-linejoin="round"/>
<path d="M387 16V14.6667C389 13.348 389.667 13.2893 389.667 11.9707C389.667 10.652 388.661 8.49995 387 8.49995C385.289 8.56164 384.805 8.92567 384.545 9.99995M387 19.3333V20M389.667 25.3333C388.019 25.3333 386.203 26 384.545 26.86C381.881 28.2427 380.549 28.9347 379.893 28.4933C379.237 28.0533 379.361 26.6867 379.611 23.9547L379.667 23.3333" stroke="#F77A69" stroke-width="2.66667" stroke-linecap="round"/>
</svg>
