<svg width="700" height="301" viewBox="-70 0 700 301" fill="none" xmlns="http://www.w3.org/2000/svg">
<g opacity="0.5">
<path fill-rule="evenodd" clip-rule="evenodd" d="M464.612 131.284C462.705 130.339 460.163 131.436 461.224 133.935C462.36 136.612 466.56 136.645 468.932 136.592C468.694 136.58 467.93 134.125 467.668 133.754C466.896 132.66 465.785 131.867 464.612 131.284ZM486.584 179.278C486.623 179.317 487.065 179.689 486.584 179.278ZM462.775 143.392C461.659 144.245 461.606 145.751 462.518 146.771C463.603 147.984 465.585 147.94 467.065 147.822C467.734 147.768 471.308 147.482 470.461 146.897C470.526 146.922 470.662 146.982 470.807 147.063C470.886 147.349 470.968 147.635 471.054 147.919C471.033 147.931 471.015 147.944 470.992 147.956C471.017 147.946 471.034 147.934 471.055 147.923C471.915 150.763 473.138 153.466 474.74 155.995C474.14 155.759 473.52 155.581 472.89 155.501C471.026 155.266 467.104 156.714 469.189 159.197C471.189 161.576 474.302 159.023 476.571 158.671C478.772 161.743 481.199 164.687 483.743 167.533C483.587 167.582 483.45 167.684 483.372 167.842C482.351 167.324 481.288 166.584 480.344 166.383C478.981 166.094 476.187 165.919 475.157 167.139C473.89 168.639 475.248 169.857 476.745 170.145C478.915 170.562 481.756 169.501 483.844 168.785C484.083 168.827 484.343 168.757 484.499 168.566C484.545 168.551 484.591 168.536 484.636 168.522C487.212 171.354 489.886 174.092 492.544 176.771C492.516 176.769 492.487 176.767 492.458 176.766C491.764 176.311 491.021 175.938 490.215 175.743C488.35 175.288 486.156 175.286 484.643 176.635C483.135 177.979 482.601 180.328 484.161 181.837C487.282 184.856 491.881 177.971 493.456 177.684C496.157 180.377 499.013 182.893 501.914 185.359C501.584 185.259 501.246 185.185 500.897 185.152C498.053 184.88 491.376 188.367 494.867 191.798C497.909 194.788 501.43 189.033 503.882 187.021C506.615 189.319 509.364 191.601 512.035 193.972C510.578 193.585 509.17 193.528 507.608 194C505.992 194.489 503.384 195.709 504.406 197.891C505.445 200.11 508.577 199.101 510.208 198.396C511.097 198.012 512.881 196.715 514.447 196.169C518.71 200.193 522.402 204.626 525.197 209.848C526.942 213.108 528.266 216.591 529.198 220.171C529.793 222.456 530.966 226.294 530.731 229.268C531.85 223.315 529.827 216.165 527.648 210.844C525.645 205.951 522.646 201.656 519.135 197.789C520.016 195.138 527.434 191.315 522.999 188.853C520.644 187.551 518.233 189.711 517.718 191.999C517.364 193.572 517.903 195.548 518.475 197.074C517.37 195.895 516.221 194.754 515.038 193.652C513.402 192.127 511.728 190.647 510.037 189.186C512.823 186.569 515.46 179.086 511.724 177.862C506.208 176.061 508.864 186.267 509.249 188.18C509.358 188.186 509.443 188.153 509.506 188.082C509.475 188.258 509.439 188.445 509.395 188.634C506.159 185.851 502.875 183.124 499.7 180.275C499.986 180.063 500.441 179.255 500.798 178.825C501.605 177.855 502.377 176.843 502.941 175.708C503.832 173.916 504.692 171.057 502.329 170.002C499.76 168.854 498.54 172.087 498.522 174.017C498.509 175.351 498.873 176.618 499.062 177.926C499.121 178.334 498.893 180.172 499.449 179.381C499.423 179.673 499.419 179.884 499.432 180.034C498.862 179.52 498.296 179 497.734 178.477C497.76 178.411 497.779 178.339 497.784 178.255C497.814 177.68 497.235 177.458 496.829 177.627C496.087 176.922 495.353 176.208 494.632 175.48C493.102 173.938 491.551 172.351 490.011 170.731C490.345 170.444 490.212 170.047 490.525 169.742C490.837 169.438 491.451 169.269 491.818 168.987C492.741 168.276 493.507 167.24 494.06 166.221C494.974 164.536 496.155 161.003 493.485 160.2C490.734 159.371 489.337 162.773 489.16 164.899C489.126 165.311 489.434 169.023 489.67 170.371C486.82 167.36 484.016 164.236 481.476 161.058C482.246 161.051 484.43 159.473 484.871 159.043C485.948 157.992 487.66 155.672 485.772 154.444C484.093 153.355 482.024 154.932 481.306 156.465C481.188 156.718 480.772 159.068 480.739 160.122C479.688 158.774 478.685 157.418 477.752 156.058C477.13 155.154 476.548 154.226 476.004 153.278C476.135 153.204 476.258 153.074 476.375 152.914C479.175 152.438 482.745 148.069 479.456 146.549C477.89 145.827 476.192 147.319 475.425 148.54C475.267 148.79 475.013 150.046 474.806 151.037C473.241 147.897 472.045 144.573 471.134 141.165C471.378 141.104 471.584 140.918 471.612 140.598C472.971 139.823 474.045 139.177 474.994 137.687C475.583 136.761 476.645 134.646 474.913 134.132C472.658 133.464 471.242 136.907 471.058 138.603C471.036 138.8 471.037 139.373 471.044 139.897C470.966 139.887 470.887 139.888 470.81 139.902C470.292 137.791 469.878 135.653 469.55 133.512C470.78 133.116 470.993 126.654 470.174 125.734C468.343 123.673 467.051 126.65 467.148 128.223C467.264 130.077 468.104 131.765 469.105 133.262C469.212 133.42 469.182 133.413 469.21 133.192C469.225 133.301 469.261 133.382 469.316 133.44C469.264 134.416 469.163 135.416 469.212 136.28C469.35 138.754 469.638 141.242 470.057 143.684C470.159 144.278 470.275 144.867 470.406 145.451C469.417 144.609 468.083 143.86 467.562 143.626C466.207 143.019 464.12 142.364 462.775 143.392ZM530.89 229.277C530.827 230.139 530.671 230.929 530.381 231.581C530.599 230.839 530.766 230.068 530.89 229.277Z" fill="#F2F2F2"/>
<path fill-rule="evenodd" clip-rule="evenodd" d="M501.707 189.718C507.003 189.443 513.553 192.534 514.118 198.291C514.528 202.474 514.401 206.645 515.036 210.822C515.544 214.16 516.619 217.364 518.084 220.405C519.493 223.329 522.415 225.818 523.175 228.941C523.659 230.931 523.388 233.731 522.72 235.678C521.908 238.045 522.34 237.858 523.958 239.844C527.131 243.736 529.987 247.728 532.007 252.376C534.917 259.072 536.824 266.898 535.745 274.228C535.607 275.158 535.444 278.499 534.163 278.732C532.731 278.993 533.401 277.083 533.477 276.466C533.964 272.529 534.397 269.087 533.809 265.088C531.542 249.66 520.474 239.495 513.268 226.401C512.871 225.725 512.035 224.118 511.454 223.057C510.535 221.382 509.612 218.195 508.37 216.953C506.029 214.614 508.181 219.317 508.637 220.215C509.214 221.351 509.848 222.558 510.439 223.553C513.143 228.166 516.161 233.202 518.953 237.957C506.876 240.709 498.37 226.189 495.129 216.643C492.459 208.778 489.264 190.391 501.707 189.718Z" fill="#69A1AC"/>
<path fill-rule="evenodd" clip-rule="evenodd" d="M572.692 175.113C563.838 175.815 558.154 181.657 555.508 189.828C554.082 194.232 553.919 198.756 553.126 203.281C551.934 210.09 549.369 215.249 544.357 220.1C542.804 221.602 541.66 223.145 540.847 224.795C539.232 226.442 537.827 228.307 536.794 230.586C535.475 233.497 535.102 236.99 536.625 239.892C537.034 240.673 538.056 242.239 539.114 242.951C535.151 251.392 532.971 260.637 533.217 269.87C533.365 275.444 533.638 281.02 533.955 286.587C534.04 288.082 534.527 290.55 535.258 288.043C535.927 285.75 535.088 282.151 535.011 279.755C534.633 268.086 534.31 257.476 539.114 246.573C539.617 245.431 540.151 244.297 540.708 243.173C540.74 243.154 540.771 243.131 540.801 243.109C540.822 243.125 540.842 243.143 540.863 243.159C540.898 243.095 540.947 243.02 541.004 242.935C541.163 242.771 541.303 242.563 541.435 242.331C541.861 241.74 542.343 241.047 542.346 240.667C542.346 240.664 542.344 240.659 542.344 240.656C545.318 235.802 548.724 231.215 552.203 226.718C552.177 226.751 555.977 221.577 555.389 224.438C555.106 225.817 552.311 228.443 551.182 229.903C548.685 233.153 545.753 237.269 543.316 241.25C542.988 241.439 542.525 242.364 542.19 243.053C542.005 243.402 541.832 243.754 541.663 244.061C550.297 246.914 557.013 241.167 561.593 234.484C561.599 234.476 561.604 234.468 561.609 234.46C563.003 232.613 564.43 230.78 566.214 229.32C569.189 226.884 572.376 226.454 575.885 225.255C585.453 221.986 589.52 209.586 590.812 200.386C592.27 190.006 585.14 174.089 572.692 175.113Z" fill="#89C5CC"/>
<path fill-rule="evenodd" clip-rule="evenodd" d="M555.203 146.045C546.116 155.502 541.726 168.619 538.25 180.951C534.367 194.724 531.803 208.71 531.705 223.03C531.64 232.438 531.384 241.906 531.933 251.303C532.128 254.64 532.461 257.984 532.99 261.285C533.033 261.557 534.217 268.929 535.349 267.211C535.993 266.234 534.136 259.563 533.996 258.452C533.206 252.195 533.023 245.891 533.061 239.588C533.125 229.211 532.819 218.887 533.87 208.548C534.027 207.004 534.151 205.383 534.518 203.872C534.907 202.267 534.411 202.968 535.68 202.332C536.912 201.714 538.435 201.803 539.713 201.027C544.784 197.952 547.378 190.053 549.398 184.871C551.707 178.944 553.11 172.624 554.232 166.387C555.055 161.804 555.643 157.25 555.976 152.608C556.081 151.145 556.087 149.616 556.375 148.177C556.452 147.789 556.841 147.103 556.827 146.759C556.797 146.032 556.358 145.604 556.322 144.993C555.942 145.336 555.568 145.686 555.203 146.045Z" fill="#89C5CC"/>
<path fill-rule="evenodd" clip-rule="evenodd" d="M505.655 272.048C505.655 287.688 518.334 300.367 533.974 300.367C549.614 300.367 562.293 287.688 562.293 272.048" fill="#89C5CC"/>
<path fill-rule="evenodd" clip-rule="evenodd" d="M536.246 272.138H534.75C534.854 270.261 534.991 268.387 535.305 266.53C536.505 259.43 540.259 249.002 548.491 247.849C548.794 247.806 549.911 247.799 551.265 247.879C551.906 247.52 552.624 247.303 553.381 247.254C560.39 246.737 568.217 252.391 571.598 258.275C574.323 263.02 573.864 269.249 572.181 274.29C571.054 277.664 568.593 282.475 564.491 282.522C559.358 282.581 559.11 276.237 559.011 272.528C558.879 267.597 558.256 263.302 554.37 259.941C553.465 259.158 552.475 258.469 551.561 257.697C550.128 256.488 548.545 255.251 548.361 253.252C548.106 250.493 549.663 249.997 552.041 250.509C552.446 250.597 556.528 252.428 555.924 250.98C555.739 250.538 555.065 250.188 554.214 249.925C552.013 249.686 549.388 249.408 548.633 249.574C540.488 251.361 537.317 262.643 536.475 269.811C536.384 270.585 536.31 271.361 536.246 272.138Z" fill="#69A1AC"/>
<path d="M41.184 239.068H23.232C22.6488 239.068 22.176 239.542 22.176 240.127V242.772C22.176 243.357 22.6488 243.831 23.232 243.831H41.184C41.7672 243.831 42.24 243.357 42.24 242.772V240.127C42.24 239.542 41.7672 239.068 41.184 239.068Z" fill="#AFB9C5"/>
<path fill-rule="evenodd" clip-rule="evenodd" d="M27.456 223.722C29.7228 216.359 30.9929 208.597 31.2665 200.438H33.6775C33.9511 208.597 35.2212 216.359 37.488 223.722H40.92C45.4399 223.722 49.104 227.394 49.104 231.924C49.104 236.454 45.4399 240.127 40.92 240.127H23.496C18.9761 240.127 15.312 236.454 15.312 231.924C15.312 227.394 18.9761 223.722 23.496 223.722H27.456Z" fill="#DDE3E9"/>
<path fill-rule="evenodd" clip-rule="evenodd" d="M13.5285 163.754C19.579 163.162 25.6295 162.866 31.68 162.866C37.7305 162.866 43.781 163.162 49.8315 163.754L52.272 205.8C45.408 206.459 38.544 206.788 31.68 206.788C24.816 206.788 17.952 206.459 11.088 205.8L13.5285 163.754Z" fill="#C5CFD6"/>
<path fill-rule="evenodd" clip-rule="evenodd" d="M66 245.332V300.367H54.912V256.974H11.088V300.367H0V245.332H33H66Z" fill="#F2F2F2"/>
<path fill-rule="evenodd" clip-rule="evenodd" d="M596.609 5.85554C598.423 4.956 600.841 5.99927 599.833 8.3773C598.752 10.9238 594.756 10.9553 592.5 10.9048C592.726 10.893 593.453 8.55776 593.702 8.2049C594.436 7.16395 595.494 6.40956 596.609 5.85554ZM575.721 52.2548C575.669 52.3061 575.08 52.8026 575.721 52.2548ZM598.717 17.6786C599.802 18.4996 599.853 19.95 598.966 20.9323C597.91 22.1016 595.983 22.06 594.544 21.9469C593.893 21.8956 590.418 21.6218 591.242 21.0582C591.179 21.0819 591.047 21.1395 590.905 21.2178C590.829 21.4936 590.748 21.7684 590.665 22.042C590.685 22.0539 590.703 22.0666 590.725 22.0783C590.701 22.0681 590.684 22.057 590.664 22.0466C589.826 24.7814 588.636 27.3855 587.077 29.8221C587.66 29.5945 588.263 29.4222 588.876 29.3453C590.689 29.1173 594.502 30.5106 592.472 32.9021C590.527 35.1948 587.501 32.7377 585.294 32.3998C583.153 35.3594 580.791 38.1959 578.317 40.9377C578.468 40.9846 578.601 41.0825 578.677 41.2349C579.67 40.7359 580.704 40.0222 581.622 39.8287C582.947 39.5498 585.665 39.3797 586.665 40.5538C587.897 41.9975 586.575 43.1714 585.12 43.4491C583.01 43.8519 580.248 42.8322 578.218 42.1434C577.985 42.1842 577.732 42.117 577.581 41.9331C577.536 41.9186 577.491 41.9043 577.447 41.8904C574.941 44.6188 572.339 47.2573 569.754 49.8379C569.781 49.8365 569.809 49.8348 569.837 49.8333C570.512 49.3951 571.235 49.0354 572.019 48.8468C573.832 48.4082 575.966 48.4049 577.437 49.7036C578.902 50.9966 579.42 53.2591 577.903 54.7127C574.866 57.6224 570.397 50.9939 568.866 50.7179C566.239 53.313 563.46 55.7377 560.638 58.1136C560.958 58.0168 561.287 57.9456 561.627 57.9135C564.393 57.6499 570.884 61.0051 567.487 64.3112C564.528 67.1921 561.106 61.6516 558.723 59.7146C556.064 61.929 553.39 64.1283 550.792 66.4132C552.209 66.0399 553.578 65.9843 555.096 66.438C556.668 66.9082 559.203 68.0821 558.208 70.184C557.197 72.3214 554.152 71.3506 552.566 70.6729C551.702 70.3034 549.968 69.0553 548.445 68.5301C544.298 72.4078 540.706 76.6785 537.985 81.7085C536.286 84.8491 534.997 88.2043 534.089 91.6524C533.509 93.8533 532.367 97.5499 532.594 100.414C531.509 94.6814 533.479 87.7948 535.601 82.6693C537.551 77.9561 540.469 73.8179 543.886 70.0926C543.03 67.5404 535.819 63.8622 540.132 61.4884C542.423 60.2333 544.767 62.3128 545.267 64.5163C545.61 66.0304 545.085 67.9334 544.528 69.4035C545.603 68.2679 546.72 67.1688 547.872 66.1061C549.463 64.6373 551.092 63.2112 552.737 61.803C550.029 59.2838 547.469 52.0793 551.102 50.8989C556.467 49.1609 553.879 58.9912 553.504 60.8336C553.397 60.8399 553.315 60.8081 553.254 60.74C553.284 60.9087 553.319 61.0891 553.361 61.271C556.509 58.5898 559.704 55.9613 562.793 53.2161C562.515 53.0126 562.073 52.2346 561.726 51.8206C560.942 50.8872 560.192 49.9122 559.644 48.8202C558.778 47.0944 557.944 44.3414 560.241 43.3249C562.74 42.2174 563.926 45.331 563.942 47.1887C563.953 48.4735 563.599 49.6942 563.415 50.9537C563.357 51.3465 563.577 53.1168 563.038 52.3555C563.063 52.6363 563.067 52.8397 563.054 52.9839C563.609 52.4886 564.159 51.9879 564.706 51.4836C564.681 51.42 564.662 51.3506 564.658 51.2701C564.629 50.7163 565.191 50.5027 565.586 50.6647C566.308 49.9855 567.022 49.2977 567.724 48.5963C569.212 47.1102 570.721 45.5818 572.22 44.0208C571.895 43.7444 572.024 43.3615 571.721 43.0681C571.417 42.7753 570.82 42.6136 570.463 42.3418C569.566 41.6575 568.822 40.6604 568.284 39.6789C567.397 38.0573 566.25 34.6551 568.846 33.8807C571.522 33.0812 572.879 36.3561 573.05 38.4039C573.083 38.8006 572.781 42.3755 572.551 43.6737C575.324 40.7727 578.052 37.7629 580.524 34.7009C579.775 34.6945 577.652 33.176 577.223 32.7616C576.177 31.7507 574.513 29.5169 576.35 28.3333C577.983 27.2836 579.994 28.8018 580.692 30.2779C580.806 30.521 581.21 32.7836 581.241 33.7989C582.264 32.5004 583.24 31.1944 584.148 29.8841C584.753 29.013 585.319 28.1189 585.848 27.2058C585.721 27.1344 585.601 27.0098 585.488 26.8549C582.766 26.3986 579.296 22.1929 582.495 20.7274C584.018 20.0306 585.669 21.4666 586.414 22.6426C586.567 22.8832 586.814 24.0931 587.015 25.0474C588.539 22.0226 589.703 18.8206 590.59 15.5377C590.353 15.4795 590.152 15.3003 590.126 14.9919C588.805 14.2462 587.761 13.6252 586.839 12.1904C586.266 11.2992 585.235 9.26299 586.919 8.76733C589.112 8.1224 590.487 11.4378 590.666 13.071C590.687 13.2606 590.686 13.812 590.678 14.3173C590.754 14.307 590.831 14.3081 590.906 14.3213C591.411 12.2885 591.814 10.2296 592.135 8.16731C590.938 7.78653 590.735 1.56335 591.532 0.676818C593.313 -1.30822 594.568 1.55732 594.472 3.0722C594.359 4.8584 593.541 6.4836 592.567 7.92607C592.463 8.07882 592.493 8.0714 592.466 7.85869C592.451 7.96384 592.415 8.04145 592.362 8.09769C592.412 9.03786 592.509 10.0004 592.462 10.8324C592.326 13.215 592.045 15.6116 591.637 17.9637C591.537 18.5357 591.424 19.1031 591.296 19.6656C592.258 18.8537 593.555 18.1321 594.063 17.9064C595.38 17.3212 597.41 16.689 598.717 17.6786ZM532.378 100.188C532.442 100.953 532.631 101.652 533.003 102.225C532.73 101.57 532.525 100.889 532.378 100.188Z" fill="#C1DEE2"/>
<path fill-rule="evenodd" clip-rule="evenodd" d="M580.08 83.8696C582.251 80.7738 586.28 72.9115 589.336 71.8053C591.304 71.0928 590.73 78.4631 590.754 79.8685C590.849 85.3056 590.32 90.7083 589.666 96.0998C588.488 105.823 584.637 114.483 579.356 122.759C576.638 127.017 573.45 131.327 569.035 133.984C567.002 135.207 564.557 135.412 562.55 136.467C560.212 137.694 561.485 136.702 560.432 139.138C558.969 142.519 558.501 146.882 557.824 150.491C554.716 167.056 547.192 254.624 548.497 271.474C548.612 272.967 546.53 273.324 546.426 271.501C545.873 261.834 550.655 194.887 553.067 172.993C555.479 151.1 557.921 131.758 560.368 124.184C563.338 114.994 568.701 103.943 573.165 95.3738C575.239 91.3926 577.499 87.5486 580.08 83.8696Z" fill="#69A1AC"/>
<path fill-rule="evenodd" clip-rule="evenodd" d="M596.195 191.247C601.844 187.1 607.959 194.928 602.847 199.076C600.021 201.369 597.066 200.553 595.403 198.643C594.323 199.959 593.312 201.335 592.341 202.497C589.383 206.04 586.586 209.666 583.914 213.378C578.362 221.088 573.604 229.233 568.629 237.23C563.72 245.122 558.85 253.055 554.4 261.147C550.63 268.003 545.606 276.069 544.315 283.585C546.273 267.644 553.704 252.322 562.552 238.27C571.328 224.332 581.4 209.111 594.989 198.112C593.606 196.078 593.568 193.175 596.195 191.247Z" fill="#C1DEE2"/>
<path fill-rule="evenodd" clip-rule="evenodd" d="M488.988 152.371C492.15 152.989 497.316 160.141 499.922 162.866C503.019 166.104 505.829 169.555 508.478 173.172C514.179 180.956 519.279 189.231 523.615 197.862C530.684 211.931 536.347 226.373 540.457 241.693C542.973 251.072 544.602 260.792 545.568 270.444C545.75 272.264 547.659 286.299 544.909 286.677C542.435 287.018 543.199 276.02 543.08 274.524C541.731 257.648 537.69 241.227 532.07 225.32C530.846 221.855 529.708 217.61 527.75 214.492C526.34 212.246 527.74 213.029 525.263 212.179C523.135 211.449 520.711 211.627 518.532 210.733C513.799 208.792 510.01 205.025 506.688 201.234C500.232 193.869 495.116 185.9 492.45 176.462C490.97 171.229 489.611 165.966 488.857 160.571C488.662 159.176 486.952 151.973 488.988 152.371Z" fill="#69A1AC"/>
<path fill-rule="evenodd" clip-rule="evenodd" d="M501.465 33.3778C513.374 54.0307 523.16 76.7174 529.479 99.6956C533.307 113.618 535.985 127.904 538.645 142.087C542.764 164.048 546.66 186.007 547.768 208.358C548.883 230.838 551.088 256.766 543.727 278.418C547.404 256.436 543.903 233.037 543.283 210.917C542.987 200.358 542.129 189.902 541.003 179.404C539.91 169.221 538.125 159.086 536.463 148.983C535.653 144.063 534.802 139.15 533.937 134.239C533.678 132.774 533.569 128.427 532.64 127.426C531.704 126.419 526.932 126.008 525.434 125.269C522.417 123.78 519.579 121.665 517.067 119.431C512.253 115.148 508.064 109.551 504.758 104.034C497.109 91.2677 494.051 75.6887 494.205 60.9042C494.235 58.0337 498.851 27.1232 496.997 26.6975C497.109 26.5668 497.215 26.4318 497.314 26.2914C498.718 28.6415 500.095 31.0076 501.465 33.3778Z" fill="#89C5CC"/>
<path fill-rule="evenodd" clip-rule="evenodd" d="M630 107.864C630.184 107.599 631.38 105.756 630.778 105.874C632.004 105.634 629.091 107.907 632.146 106.512C630.696 107.882 631.533 109.662 631.552 111.506C631.584 114.499 631.083 117.469 630.519 120.398C629.628 125.028 628.301 129.531 626.375 133.838C622.176 143.223 615.046 152.259 606.581 158.127C602.403 161.024 598.308 162.01 593.542 163.344C590.532 164.187 590.293 165.744 588.695 168.665C585.368 174.749 582.101 180.811 579.167 187.101C575.664 194.611 572.263 202.129 569.056 209.771C558.249 235.514 549.454 262.184 544.834 289.785C544.721 273.52 548.484 256.768 553.23 241.265C556.687 229.97 561.188 219.081 565.989 208.303C567.152 205.692 568.915 202.333 569.409 199.45C569.755 197.43 568.697 195.488 568.213 193.36C566.325 185.074 566.461 175.792 568.118 167.462C569.946 158.276 575.231 154.013 584.173 152.712C587.443 152.236 591.599 152.41 594.597 151.016C597.864 149.498 599.211 144.507 601.069 141.303C606.058 132.698 611.986 124.445 618.794 117.194C620.678 115.186 622.705 113.334 624.856 111.617C626.212 110.534 629.076 109.199 630 107.864Z" fill="#89C5CC"/>
<path fill-rule="evenodd" clip-rule="evenodd" d="M529.741 272.219H561.473C562.899 272.219 564.056 273.375 564.056 274.802C564.056 274.928 564.047 275.054 564.028 275.179L561.576 291.809C560.828 296.879 556.478 300.634 551.353 300.634H539.861C534.736 300.634 530.386 296.879 529.638 291.809L527.186 275.179C526.977 273.767 527.953 272.454 529.364 272.246C529.489 272.228 529.615 272.219 529.741 272.219Z" fill="#C1DEE2"/>
</g>
</svg>
