<svg width="60" height="60" viewBox="0 0 60 60" fill="none" xmlns="http://www.w3.org/2000/svg">
<mask id="mask0_46_143" style="mask-type:alpha" maskUnits="userSpaceOnUse" x="5" y="5" width="50" height="50">
<circle cx="30" cy="30" r="25" fill="#C4C4C4"/>
</mask>
<g mask="url(#mask0_46_143)">
<circle cx="30" cy="30" r="25" style="fill: var(--theme-primary, #4A93FF)"/>
<path d="M20 18.75H40V41.25H20V18.75Z" fill="#BF360C"/>
<path d="M50 55H10C10 41.25 23.75 38.75 23.75 38.75H36.25C36.25 38.75 50 41.25 50 55Z" fill="#78909C"/>
<path d="M30 46.25C27.25 46.25 23.75 38.75 23.75 38.75V31.25H36.25V38.75C36.25 38.75 32.75 46.25 30 46.25Z" fill="#FF9800"/>
<path d="M41.25 17.4999C41.25 7.99995 18.75 11.2499 18.75 17.4999V26.2499C18.75 32.4999 23.75 37.4999 30 37.4999C36.25 37.4999 41.25 32.4999 41.25 26.2499V17.4999Z" fill="#FFB74D"/>
<path d="M30 5C22.375 5 11.25 9.25 11.25 34.125L20 40V23.75L35 15L40 21.25V40L48.75 32.5C48.75 27.5 47.875 7.5 35 7.5L33.75 5H30Z" fill="#FF5722"/>
<path d="M30 47.5C24.5 47.5 23.75 38.75 23.75 38.75C23.75 38.75 26.875 43.75 30 43.75C33.125 43.75 36.25 38.75 36.25 38.75C36.25 38.75 35.5 47.5 30 47.5Z" fill="#FFB74D"/>
<path d="M35 27.5C35.6904 27.5 36.25 26.9404 36.25 26.25C36.25 25.5596 35.6904 25 35 25C34.3096 25 33.75 25.5596 33.75 26.25C33.75 26.9404 34.3096 27.5 35 27.5Z" fill="#784719"/>
<path d="M25 27.5C25.6904 27.5 26.25 26.9404 26.25 26.25C26.25 25.5596 25.6904 25 25 25C24.3096 25 23.75 25.5596 23.75 26.25C23.75 26.9404 24.3096 27.5 25 27.5Z" fill="#784719"/>
</g>
</svg>
